<?xml version="1.0" encoding="utf-8"?>
<svg xmlns="http://www.w3.org/2000/svg" viewBox="0 0 64 64" width="512" height="512">
  <linearGradient id="L9acxROFEyNhZ11Z5~hU9a" x1="20" x2="20" y1="20" y2="32" gradientUnits="userSpaceOnUse" spreadMethod="reflect">
    <stop offset="0" stop-color="#6dc7ff" />
    <stop offset="1" stop-color="#e6abff" />
  </linearGradient>
  <path fill="url(#L9acxROFEyNhZ11Z5~hU9a)" d="M14 20H26V32H14z" />
  <linearGradient id="L9acxROFEyNhZ11Z5~hU9b" x1="44" x2="44" y1="20" y2="32" gradientUnits="userSpaceOnUse" spreadMethod="reflect">
    <stop offset="0" stop-color="#6dc7ff" />
    <stop offset="1" stop-color="#e6abff" />
  </linearGradient>
  <path fill="url(#L9acxROFEyNhZ11Z5~hU9b)" d="M38 20H50V32H38z" />
  <linearGradient id="L9acxROFEyNhZ11Z5~hU9c" x1="32" x2="32" y1="32" y2="56" gradientUnits="userSpaceOnUse" spreadMethod="reflect">
    <stop offset="0" stop-color="#6dc7ff" />
    <stop offset="1" stop-color="#e6abff" />
  </linearGradient>
  <path fill="url(#L9acxROFEyNhZ11Z5~hU9c)" d="M38 38L38 32 26 32 26 38 20 38 20 56 26 56 26 50 38 50 38 56 44 56 44 38z" />
  <linearGradient id="L9acxROFEyNhZ11Z5~hU9d" x1="32" x2="32" y1="7" y2="57" gradientUnits="userSpaceOnUse" spreadMethod="reflect">
    <stop offset="0" stop-color="#1a6dff" />
    <stop offset="1" stop-color="#c822ff" />
  </linearGradient>
  <path fill="url(#L9acxROFEyNhZ11Z5~hU9d)" d="M55,57H9c-1.103,0-2-0.897-2-2V9c0-1.103,0.897-2,2-2h46c1.103,0,2,0.897,2,2v46 C57,56.103,56.103,57,55,57z M9,9H8.998L9,55h46V9H9z" />
</svg>